HIERARCHY
ROOT Hips
{
	OFFSET	0.000000	0.000000	0.000000
	CHANNELS 6 Xposition Yposition Zposition Zrotation Xrotation Yrotation
	JOINT LeftUpLeg
	{
		OFFSET	11.840399	-0.173119	-0.075538
		CHANNELS 3 Zrotation Xrotation Yrotation
		JOINT LeftLeg
		{
			OFFSET	0.064808	-44.851298	0.781096
			CHANNELS 3 Zrotation Xrotation Yrotation
			JOINT LeftFoot
			{
				OFFSET	-0.411978	-49.277500	-5.913910
				CHANNELS 3 Zrotation Xrotation Yrotation
				JOINT LeftFootHeel
				{
					OFFSET	0.398859	-7.754640	-1.534350
					CHANNELS 3 Zrotation Xrotation Yrotation
					End Site
					{
						OFFSET	-0.801033	0.000000	15.913000
					}
				}
			}
		}
	}
	JOINT RightUpLeg
	{
		OFFSET	-11.834999	-0.173119	-0.075545
		CHANNELS 3 Zrotation Xrotation Yrotation
		JOINT RightLeg
		{
			OFFSET	0.475869	-44.754298	0.015312
			CHANNELS 3 Zrotation Xrotation Yrotation
			JOINT RightFoot
			{
				OFFSET	-0.134178	-49.374297	-5.148100
				CHANNELS 3 Zrotation Xrotation Yrotation
				JOINT RightFootHeel
				{
					OFFSET	-0.839358	-7.754890	-1.534350
					CHANNELS 3 Zrotation Xrotation Yrotation
					End Site
					{
						OFFSET	-0.408955	0.000000	15.913000
					}
				}
			}
		}
	}
	JOINT Spine
	{
		OFFSET	0.050508	11.209099	-0.582724
		CHANNELS 3 Zrotation Xrotation Yrotation
		JOINT Spine1
		{
			OFFSET	0.042163	9.774660	-1.172990
			CHANNELS 3 Zrotation Xrotation Yrotation
			JOINT LeftShoulder
			{
				OFFSET	5.603600	33.379699	4.558560
				CHANNELS 3 Zrotation Xrotation Yrotation
				JOINT LeftArm
				{
					OFFSET	13.074199	-1.820300	-4.573250
					CHANNELS 3 Zrotation Xrotation Yrotation
					JOINT LeftForeArm
					{
						OFFSET	5.636920	-32.087297	-3.211630
						CHANNELS 3 Zrotation Xrotation Yrotation
						JOINT LeftHand
						{
							OFFSET	3.776520	-29.426399	4.832530
							CHANNELS 3 Zrotation Xrotation Yrotation
							End Site
							{
								OFFSET	-0.179757	-9.309100	2.195490
							}
						}
					}
				}
			}
			JOINT RightShoulder
			{
				OFFSET	-4.623460	33.254699	4.558560
				CHANNELS 3 Zrotation Xrotation Yrotation
				JOINT RightArm
				{
					OFFSET	-13.749399	-1.225980	-4.573250
					CHANNELS 3 Zrotation Xrotation Yrotation
					JOINT RightForeArm
					{
						OFFSET	-4.875480	-32.133799	-3.211650
						CHANNELS 3 Zrotation Xrotation Yrotation
						JOINT RightHand
						{
							OFFSET	-6.200270	-29.009799	4.832530
							CHANNELS 3 Zrotation Xrotation Yrotation
							End Site
							{
								OFFSET	-0.386105	-9.730280	2.195490
							}
						}
					}
				}
			}
			JOINT Neck
			{
				OFFSET	0.427050	38.342097	-0.327886
				CHANNELS 3 Zrotation Xrotation Yrotation
				JOINT Head
				{
					OFFSET	-0.148467	9.384920	4.054140
					CHANNELS 3 Zrotation Xrotation Yrotation
					End Site
					{
						OFFSET	-0.426895	13.303099	0.399781
					}
				}
			}
		}
	}
}
MOTION
Frames:    6
Frame Time: 0.016667
-1.116821	103.104819	1.902087	-6.599404	-9.914063	-34.110634	5.888129	5.092969	7.482770	-8.256821	13.985398	4.846601	-2.007961	-8.654611	-7.496000	0.	0.	0.	-6.710569	-3.294660	0.249953	-0.637772	15.980097	-17.384705	5.037781	-0.746247	4.734378	0.	0.	0.	-0.000001	0.000002	-0.000003	-17.845198	39.158798	10.716500	2.737440	-7.981360	1.407499	1.482040	-4.018561	-17.664499	11.784202	-17.692503	17.640200	2.640471	0.908525	-4.488599	1.837230	-3.092952	-2.465632	4.077048	3.121198	0.934576	12.323698	-45.363506	-12.885201	-30.383900	-33.033199	-11.490400	0.504408	-8.785141	0.325012	7.243920	-14.624100	-3.632302	
-1.104363	103.063339	1.821653	-6.654442	-10.141782	-34.223461	5.853631	5.229559	7.578250	-8.310138	14.101597	4.883672	-1.967559	-8.649160	-7.549398	0.	0.	0.	-6.777729	-3.238199	0.241319	-0.694564	16.174496	-17.279097	5.060501	-0.784972	4.779764	0.	0.	0.	-0.000001	0.000003	-0.000002	-18.016500	39.720802	10.993702	2.623189	-8.044648	1.271382	1.640990	-4.072568	-17.700394	12.210001	-18.452902	17.668602	2.722420	0.844105	-4.314907	1.972600	-3.108169	-2.480148	3.972929	3.041772	1.066063	12.137197	-47.026791	-12.546193	-29.927307	-31.687796	-10.713297	0.637039	-8.926089	0.491856	7.077370	-14.911498	-3.774590	
-1.114605	103.020193	1.759785	-6.671682	-10.361683	-34.340698	5.775590	5.365360	7.683290	-8.325080	14.197900	4.915452	-1.958899	-8.652280	-7.600750	0.	0.	0.	-6.892700	-3.174500	0.160373	-0.744981	16.330200	-17.182398	5.068810	-0.817921	4.905082	0.	0.	0.	-0.000001	0.000002	-0.000002	-18.200100	40.304398	11.270301	2.489911	-8.161649	1.079540	1.820972	-4.140530	-17.749601	12.623701	-19.178299	17.744898	2.777130	0.788732	-4.167679	2.092180	-3.135627	-2.495219	3.785221	2.809184	1.104761	12.281701	-48.844398	-11.800097	-29.613400	-30.290602	-9.845782	0.715445	-9.066346	0.666060	6.930310	-15.177592	-3.937042	
-1.105269	102.997345	1.720145	-6.691741	-10.495403	-34.455154	5.720749	5.467760	7.717627	-8.349381	14.222901	4.989296	-1.938301	-8.641500	-7.614431	0.	0.	0.	-7.005849	-3.136539	0.033519	-0.769384	16.420700	-17.097502	5.077919	-0.823731	5.070738	0.	0.	0.	-0.000000	0.000001	-0.000005	-18.313105	40.827103	11.486397	2.368169	-8.305265	0.920458	2.025789	-4.208605	-17.887602	13.021601	-19.860399	17.890196	2.817841	0.805521	-4.095821	2.163739	-3.191765	-2.441620	3.660038	2.771037	1.096990	12.573298	-50.977615	-10.538303	-29.260893	-28.975517	-8.582550	0.738763	-9.186605	0.796690	6.831100	-15.405297	-4.017970	
-1.083812	102.981513	1.675127	-6.692355	-10.545707	-34.570633	5.693169	5.486650	7.688460	-8.404313	14.234302	5.058240	-1.898492	-8.633289	-7.537018	0.	0.	0.	-7.105569	-3.118390	-0.132158	-0.795042	16.431499	-17.007801	5.080850	-0.813395	5.270091	0.	0.	0.	-0.000001	0.000002	-0.000002	-18.397303	41.032509	11.647601	2.366529	-8.253648	0.825017	2.070319	-4.352209	-17.923800	13.404800	-20.401505	17.800396	2.903159	0.845730	-4.081841	2.233120	-3.102469	-2.316741	3.582338	2.715091	0.954612	13.074903	-53.050091	-8.667267	-29.394699	-27.142096	-8.035274	0.832720	-9.059778	0.869388	6.735829	-15.575596	-3.961270	
-1.061762	102.974634	1.623738	-6.682925	-10.548652	-34.683807	5.677869	5.468051	7.635300	-8.445739	14.222200	5.187151	-1.893060	-8.619871	-7.490239	0.	0.	0.	-7.168900	-3.128920	-0.309584	-0.813839	16.372898	-16.911598	5.039120	-0.764411	5.461535	0.	0.	0.	-0.000001	0.000002	-0.000002	-18.343700	41.322205	11.730102	2.322301	-8.336292	0.722483	2.173231	-4.402931	-18.056803	13.705499	-20.970301	17.761499	3.062760	0.852132	-4.085240	2.161592	-3.227582	-2.233082	3.446171	2.575998	0.781836	13.952204	-54.976009	-6.233325	-28.689497	-25.432402	-6.493606	0.843460	-9.050261	0.819391	6.678172	-15.661699	-3.797463	
